#!OML:ASF H:\Pregnant\Project 1\Capture day 1\Session 1\femalepreg.ASF
:FULLY-SPECIFIED
:DEGREES
556
root 6.40787 2.61478 28.6323 120.09 -25.9968 -167.985
lowerback 63.9952 7.34228 7.07586
upperback 11.4363 6.68109 3.97967
thorax -8.44604 -0.323241 -1.01634
lowerneck -14.9726 -1.19425 4.50644
upperneck 33.7824 -6.53894 3.23495
head 14.0735 -2.51706 -0.719723
rclavicle 4.29375e-014 -2.38542e-014
rhumerus 36.7017 45.2909 -38.3076
rradius 36.592
rwrist -7.63118
rhand 7.02345 -16.8657
rfingers 7.12502
rthumb 32.298 -44.0114
lclavicle 4.29375e-014 -2.38542e-014
lhumerus -29.5589 -30.7459 68.7018
lradius 52.5839
lwrist 107.528
lhand -62.5141 86.9789
lfingers 7.12502
lthumb -34.5418 -113.641
rfemur -85.999 -42.7326 29.9786
rtibia 111.742
rfoot 20.4382 21.7017
rtoes -17.2031
lfemur -110.757 430.171 292.966
ltibia 132.522
lfoot 70.5805 -339.045
ltoes 55.305
557
root 6.41944 2.60462 28.6384 120.054 -25.9875 -168.081
lowerback 63.7763 7.30784 7.09616
upperback 11.4906 6.65729 3.95791
thorax -8.37731 -0.317456 -1.04749
lowerneck -14.8902 -1.18208 4.49413
upperneck 33.8005 -6.52731 3.24805
head 14.0645 -2.5167 -0.709707
rclavicle 5.64548e-014 6.36111e-015
rhumerus 36.6625 45.1711 -38.4115
rradius 36.3671
rwrist -7.5025
rhand 7.15766 -16.8317
rfingers 7.12502
rthumb 32.4258 -43.9513
lclavicle 5.64548e-014 6.36111e-015
lhumerus -29.3896 -30.973 68.6318
lradius 52.4383
lwrist 107.751
lhand -62.533 87.6268
lfingers 7.12502
lthumb -34.5598 -114.284
rfemur -86.0127 -42.7081 30.03
rtibia 111.674
rfoot 20.6449 21.5406
rtoes -17.1778
lfemur -110.323 429.684 293.481
ltibia 132.5
lfoot 70.3446 -338.837
ltoes 55.342
558
root 6.43111 2.59444 28.6449 120.053 -26.0144 -168.198
lowerback 63.5408 7.2722 7.09351
upperback 11.541 6.62035 3.92056
thorax -8.31324 -0.31359 -1.08154
lowerneck -14.811 -1.16676 4.48372
upperneck 33.823 -6.5128 3.26159
head 14.0581 -2.51468 -0.699549
rclavicle 4.77083e-015 7.79236e-014
rhumerus 36.6404 45.0606 -38.5003
rradius 36.1375
rwrist -7.35093
rhand 7.21948 -16.8919
rfingers 7.12502
rthumb 32.4846 -43.9994
lclavicle 4.77083e-015 7.79236e-014
lhumerus -29.2179 -31.2153 68.5529
lradius 52.2964
lwrist 107.984
lhand -62.5499 88.1771
lfingers 7.12502
lthumb -34.5758 -114.831
rfemur -86.0886 -42.6973 30.0708
rtibia 111.628
rfoot 20.8197 21.4122
rtoes -17.21
lfemur -109.835 429.095 293.999
ltibia 132.467
lfoot 70.0322 -338.626
ltoes 55.3857
559
root 6.44295 2.58428 28.6514 120.054 -26.0512 -168.316
lowerback 63.3109 7.23146 7.0889
upperback 11.5854 6.57753 3.87595
thorax -8.2552 -0.311396 -1.12003
lowerneck -14.722 -1.1477 4.47939
upperneck 33.8451 -6.49403 3.27351
head 14.0492 -2.51081 -0.690244
rclavicle -6.99722e-014 6.04305e-014
rhumerus 36.6341 44.9691 -38.5747
rradius 35.9076
rwrist -7.17378
rhand 7.2989 -16.9879
rfingers 7.12502
rthumb 32.5602 -44.0799
lclavicle -6.99722e-014 6.04305e-014
lhumerus -29.0536 -31.4706 68.4711
lradius 52.1593
lwrist 108.221
lhand -62.5651 88.7155
lfingers 7.12502
lthumb -34.5903 -115.366
rfemur -86.1683 -42.6961 30.1042
rtibia 111.586
rfoot 20.9859 21.294
rtoes -17.2328
lfemur -109.358 428.478 294.496
ltibia 132.431
lfoot 69.6775 -338.45
ltoes 55.4364
560
root 6.45508 2.57422 28.658 120.049 -26.0868 -168.433
lowerback 63.0865 7.18774 7.09316
upperback 11.6323 6.53436 3.82857
thorax -8.19272 -0.30989 -1.16476
lowerneck -14.6372 -1.1279 4.47701
upperneck 33.866 -6.47456 3.28603
head 14.0408 -2.50605 -0.680974
rclavicle 7.43455e-014 -3.65764e-014
rhumerus 36.6436 44.8723 -38.6336
rradius 35.6721
rwrist -6.9966
rhand 7.4322 -17.0508
rfingers 7.12502
rthumb 32.687 -44.1165
lclavicle 7.43455e-014 -3.65764e-014
lhumerus -28.8826 -31.7394 68.381
lradius 52.0299
lwrist 108.463
lhand -62.5753 89.2145
lfingers 7.12502
lthumb -34.5999 -115.863
rfemur -86.2344 -42.7001 30.1345
rtibia 111.543
rfoot 21.1433 21.1782
rtoes -17.2612
lfemur -108.927 427.866 294.952
ltibia 132.4
lfoot 69.3032 -338.331
ltoes 55.497
561
root 6.46765 2.56441 28.6647 120.027 -26.1094 -168.543
lowerback 62.8727 7.14363 7.11681
upperback 11.6865 6.49825 3.78559
thorax -8.11999 -0.307455 -1.21508
lowerneck -14.5701 -1.11103 4.47464
upperneck 33.8854 -6.45779 3.2965
head 14.0354 -2.50169 -0.673177
rclavicle 3.97569e-014 3.02153e-014
rhumerus 36.6613 44.7542 -38.6855
rradius 35.4278
rwrist -6.79934
rhand 7.61734 -17.1102
rfingers 7.12502
rthumb 32.8631 -44.1392
lclavicle 3.97569e-014 3.02153e-014
lhumerus -28.687 -32.0145 68.2816
lradius 51.8989
lwrist 108.711
lhand -62.5726 89.5234
lfingers 7.12502
lthumb -34.5974 -116.173
rfemur -86.2677 -42.706 30.1673
rtibia 111.492
rfoot 21.2815 21.0627
rtoes -17.299
lfemur -108.563 427.284 295.362
ltibia 132.378
lfoot 68.9196 -338.297
ltoes 55.5639
562
root 6.48068 2.5548 28.6715 119.974 -26.1088 -168.64
lowerback 62.6958 7.09276 7.1665
upperback 11.734 6.46774 3.74266
thorax -8.05221 -0.305332 -1.27706
lowerneck -14.5059 -1.09416 4.471
upperneck 33.9058 -6.44261 3.31133
head 14.0314 -2.49754 -0.663778
rclavicle 3.85642e-014 -1.11319e-014
rhumerus 36.6764 44.6314 -38.7466
rradius 35.1799
rwrist -6.57739
rhand 7.8826 -17.0965
rfingers 7.12502
rthumb 33.1154 -44.0723
lclavicle 3.85642e-014 -1.11319e-014
lhumerus -28.494 -32.2969 68.1744
lradius 51.7765
lwrist 108.963
lhand -62.5616 89.6424
lfingers 7.12502
lthumb -34.5869 -116.294
rfemur -86.2438 -42.7123 30.2013
rtibia 111.431
rfoot 21.397 20.9465
rtoes -17.3561
lfemur -108.242 426.773 295.762
ltibia 132.363
lfoot 68.5953 -338.267
ltoes 55.6288
563
root 6.49416 2.54531 28.6782 119.896 -26.0914 -168.728
lowerback 62.5297 7.0447 7.23081
upperback 11.7904 6.44445 3.70936
thorax -7.97374 -0.303082 -1.33692
lowerneck -14.447 -1.07935 4.46761
upperneck 33.9218 -6.42744 3.32172
head 14.0262 -2.49352 -0.65615
rclavicle -4.96962e-014 -9.06458e-014
rhumerus 36.7102 44.502 -38.7838
rradius 34.9332
rwrist -6.35107
rhand 8.20882 -17.0292
rfingers 7.12502
rthumb 33.4255 -43.9386
lclavicle -4.96962e-014 -9.06458e-014
lhumerus -28.2869 -32.5743 68.0625
lradius 51.6527
lwrist 109.217
lhand -62.542 89.4151
lfingers 7.12502
lthumb -34.5684 -116.071
rfemur -86.1761 -42.7206 30.2363
rtibia 111.36
rfoot 21.4955 20.8305
rtoes -17.4236
lfemur -107.963 426.318 296.147
ltibia 132.358
lfoot 68.305 -338.267
ltoes 55.6961
564
root 6.50803 2.53596 28.6849 119.818 -26.0746 -168.822
lowerback 62.3684 6.99964 7.29203
upperback 11.8463 6.42141 3.6729
thorax -7.89563 -0.300872 -1.3989
lowerneck -14.3926 -1.06423 4.46263
upperneck 33.9379 -6.412 3.33394
head 14.0223 -2.48914 -0.647559
rclavicle 1.47101e-014 -3.18055e-014
rhumerus 36.7463 44.368 -38.8242
rradius 34.6887
rwrist -6.10513
rhand 8.55466 -16.9397
rfingers 7.12502
rthumb 33.7542 -43.7777
lclavicle 1.47101e-014 -3.18055e-014
lhumerus -28.0759 -32.8492 67.9423
lradius 51.5265
lwrist 109.477
lhand -62.5202 88.7047
lfingers 7.12502
lthumb -34.5476 -115.365
rfemur -86.1045 -42.7246 30.2678
rtibia 111.288
rfoot 21.5924 20.714
rtoes -17.4872
lfemur -107.704 425.873 296.511
ltibia 132.352
lfoot 68.025 -338.275
ltoes 55.7647
565
root 6.52234 2.52658 28.6915 119.72 -26.0406 -168.909
lowerback 62.2227 6.95693 7.3627
upperback 11.9019 6.4048 3.64128
thorax -7.81749 -0.297879 -1.46153
lowerneck -14.3295 -1.04878 4.46303
upperneck 33.9505 -6.39554 3.34253
head 14.0145 -2.48453 -0.640971
rclavicle -5.04913e-014 1.43125e-014
rhumerus 36.7815 44.2337 -38.8705
rradius 34.4469
rwrist -5.83919
rhand 8.92708 -16.8223
rfingers 7.12502
rthumb 34.108 -43.582
lclavicle -5.04913e-014 1.43125e-014
lhumerus -27.8676 -33.1248 67.8231
lradius 51.3994
lwrist 109.721
lhand -62.499 88.1552
lfingers 7.12502
lthumb -34.5275 -114.82
rfemur -85.9945 -42.7242 30.3021
rtibia 111.207
rfoot 21.6707 20.6069
rtoes -17.5388
lfemur -107.486 425.487 296.862
ltibia 132.356
lfoot 67.769 -338.302
ltoes 55.8413
566
root 6.5369 2.51731 28.6981 119.664 -26.0404 -169.026
lowerback 62.0521 6.92739 7.39313
upperback 11.9545 6.38231 3.59755
thorax -7.74526 -0.293718 -1.51931
lowerneck -14.2619 -1.0337 4.4637
upperneck 33.9634 -6.3812 3.35426
head 14.0061 -2.4807 -0.633475
rclavicle 6.12257e-014 2.22639e-014
rhumerus 36.8087 44.0972 -38.9327
rradius 34.2092
rwrist -5.55014
rhand 9.22021 -16.7761
rfingers 7.12502
rthumb 34.3864 -43.4732
lclavicle 6.12257e-014 2.22639e-014
lhumerus -27.6587 -33.4044 67.7003
lradius 51.2688
lwrist 109.95
lhand -62.4847 87.9411
lfingers 7.12502
lthumb -34.5139 -114.609
rfemur -85.95 -42.714 30.3247
rtibia 111.14
rfoot 21.7568 20.5152
rtoes -17.6008
lfemur -107.254 425.038 297.183
ltibia 132.348
lfoot 67.4758 -338.308
ltoes 55.926
